<mxfile host="65bd71144e">
    <diagram id="J8PvAK9FDcsxH0jUSb61" name="Page-1">
        <mxGraphModel dx="1752" dy="1340" grid="1" gridSize="10" guides="1" tooltips="1" connect="1" arrows="1" fold="1" page="1" pageScale="1" pageWidth="850" pageHeight="1100" math="0" shadow="0">
            <root>
                <mxCell id="0"/>
                <mxCell id="1" parent="0"/>
                <mxCell id="6" style="edgeStyle=none;html=1;entryX=0.5;entryY=0;entryDx=0;entryDy=0;" edge="1" parent="1" source="2" target="3">
                    <mxGeometry relative="1" as="geometry"/>
                </mxCell>
                <mxCell id="7" style="edgeStyle=none;html=1;entryX=0.5;entryY=0;entryDx=0;entryDy=0;" edge="1" parent="1" source="2" target="4">
                    <mxGeometry relative="1" as="geometry"/>
                </mxCell>
                <mxCell id="8" style="edgeStyle=none;html=1;entryX=0.5;entryY=0;entryDx=0;entryDy=0;" edge="1" parent="1" source="2" target="5">
                    <mxGeometry relative="1" as="geometry"/>
                </mxCell>
                <mxCell id="2" value="WS message" style="whiteSpace=wrap;html=1;" vertex="1" parent="1">
                    <mxGeometry x="170" y="400" width="280" height="60" as="geometry"/>
                </mxCell>
                <mxCell id="3" value="TYPE: Event&lt;br&gt;Data: obj" style="whiteSpace=wrap;html=1;" vertex="1" parent="1">
                    <mxGeometry x="-110" y="530" width="280" height="60" as="geometry"/>
                </mxCell>
                <mxCell id="4" value="TYPE: Request&lt;br&gt;Request_id: string&lt;br&gt;Data: obj" style="whiteSpace=wrap;html=1;" vertex="1" parent="1">
                    <mxGeometry x="280" y="530" width="280" height="60" as="geometry"/>
                </mxCell>
                <mxCell id="5" value="TYPE: Response&lt;br&gt;Request_id: string&lt;br&gt;Data: obj" style="whiteSpace=wrap;html=1;" vertex="1" parent="1">
                    <mxGeometry x="600" y="530" width="280" height="60" as="geometry"/>
                </mxCell>
            </root>
        </mxGraphModel>
    </diagram>
</mxfile>